<?xml version="1.0" standalone="no"?>
<!DOCTYPE svg PUBLIC "-//W3C//DTD SVG 20010904//EN"
 "http://www.w3.org/TR/2001/REC-SVG-20010904/DTD/svg10.dtd">
<svg version="1.0" xmlns="http://www.w3.org/2000/svg"
 width="100.000000pt" height="100.000000pt" viewBox="0 0 100.000000 100.000000"
 preserveAspectRatio="xMidYMid meet">

<g transform="translate(0.000000,100.000000) scale(0.100000,-0.100000)"
fill="#000000" stroke="none">
<path d="M12 948 c-25 -25 -6 -68 30 -68 10 0 23 9 30 20 11 16 24 20 72 20
41 0 65 -5 77 -16 12 -11 45 -127 105 -371 68 -278 92 -361 111 -383 14 -17
19 -31 13 -35 -19 -12 -11 -65 15 -90 52 -53 142 -12 133 61 l-4 34 56 0 56 0
-4 -34 c-9 -73 81 -114 133 -61 29 28 31 59 9 103 l-15 32 -172 0 c-95 0 -177
4 -184 8 -12 8 -25 38 -37 84 l-6 28 191 2 191 3 74 195 c41 107 72 201 69
208 -3 9 -76 12 -318 12 l-313 0 -18 78 c-25 108 -50 160 -81 172 -38 14 -198
13 -213 -2z m898 -290 c0 -2 -28 -77 -63 -168 l-63 -165 -182 -3 -181 -2 -10
37 c-30 113 -71 283 -71 292 0 8 91 11 285 11 157 0 285 -1 285 -2z m-360
-553 c15 -18 10 -45 -12 -59 -35 -22 -74 27 -48 59 16 19 44 19 60 0z m260 0
c15 -18 10 -45 -12 -59 -35 -22 -74 27 -48 59 16 19 44 19 60 0z"/>
</g>
</svg>
